<svg width="193" height="71" viewBox="0 0 193 71" fill="none" xmlns="http://www.w3.org/2000/svg">
<path d="M22.5 17.7207C21.9727 17.7207 21.3574 17.8281 20.6543 18.043C19.9512 18.2578 19.2285 18.668 18.4863 19.2734C17.7637 19.8594 17.0508 20.6895 16.3477 21.7637C15.6445 22.8379 15.0098 24.2344 14.4434 25.9531C13.8965 27.6523 13.4473 29.7227 13.0957 32.1641C12.7637 34.6055 12.5977 37.4863 12.5977 40.8066C12.5977 43.9707 12.7637 46.7148 13.0957 49.0391C13.4473 51.3633 13.9062 53.3457 14.4727 54.9863C15.0586 56.6074 15.7227 57.9355 16.4648 58.9707C17.207 60.0059 17.9883 60.8066 18.8086 61.373C19.6289 61.959 20.4492 62.3594 21.2695 62.5742C22.0898 62.7891 22.8613 62.8965 23.584 62.8965C24.3457 62.8965 25.1172 62.7988 25.8984 62.6035C26.6797 62.4082 27.4414 62.125 28.1836 61.7539C28.9453 61.3828 29.668 60.9336 30.3516 60.4062C31.0547 59.8789 31.6992 59.2734 32.2852 58.5898L33.6035 59.9082C33.0176 60.6309 32.3145 61.3633 31.4941 62.1055C30.6738 62.8672 29.7168 63.5508 28.623 64.1562C27.5488 64.7812 26.3379 65.2891 24.9902 65.6797C23.6426 66.0703 22.1484 66.2656 20.5078 66.2656C17.9492 66.2656 15.5664 65.7773 13.3594 64.8008C11.1719 63.8242 9.25781 62.3008 7.61719 60.2305C5.99609 58.1797 4.7168 55.543 3.7793 52.3203C2.86133 49.0977 2.40234 45.2402 2.40234 40.748C2.40234 36.5293 2.89062 32.8281 3.86719 29.6445C4.84375 26.4609 6.17188 23.8047 7.85156 21.6758C9.53125 19.5273 11.5039 17.916 13.7695 16.8418C16.0352 15.748 18.4473 15.2012 21.0059 15.2012C22.7051 15.2012 24.248 15.3672 25.6348 15.6992C27.041 16.0117 28.252 16.4805 29.2676 17.1055C30.2832 17.7109 31.0645 18.4727 31.6113 19.3906C32.1777 20.2891 32.4609 21.3145 32.4609 22.4668C32.4609 22.9941 32.373 23.5508 32.1973 24.1367C32.0215 24.7031 31.748 25.2305 31.377 25.7188C31.0254 26.1875 30.5859 26.5781 30.0586 26.8906C29.5312 27.1836 28.916 27.3301 28.2129 27.3301C27.5879 27.3301 27.0996 27.1934 26.748 26.9199C26.416 26.6465 26.1621 26.2852 25.9863 25.8359C25.8301 25.3867 25.7227 24.8789 25.6641 24.3125C25.625 23.7266 25.5957 23.1309 25.5762 22.5254C25.5566 21.9199 25.5078 21.334 25.4297 20.7676C25.3711 20.1816 25.2344 19.6641 25.0195 19.2148C24.8242 18.7656 24.5312 18.4043 24.1406 18.1309C23.75 17.8574 23.2031 17.7207 22.5 17.7207ZM45.4102 34.1562C46.1328 33.1211 46.9531 32.1934 47.8711 31.373C48.2422 31.0215 48.6523 30.6797 49.1016 30.3477C49.5703 30.0156 50.0586 29.7227 50.5664 29.4688C51.0938 29.1953 51.6406 28.9805 52.207 28.8242C52.793 28.668 53.3887 28.5898 53.9941 28.5898C55.3027 28.5898 56.4746 28.8438 57.5098 29.3516C58.5449 29.8594 59.4141 30.709 60.1172 31.9004C60.8203 33.0918 61.3574 34.6738 61.7285 36.6465C62.0996 38.5996 62.2852 41.0312 62.2852 43.9414C62.2852 46.7734 62.0312 49.2344 61.5234 51.3242C61.0156 53.4141 60.3516 55.1914 59.5312 56.6562C58.7109 58.1211 57.7832 59.3125 56.748 60.2305C55.7129 61.168 54.668 61.9004 53.6133 62.4277C52.5586 62.9551 51.543 63.3164 50.5664 63.5117C49.5898 63.7266 48.75 63.8438 48.0469 63.8633L47.7539 62.6621C48.6328 62.4473 49.4141 62.0469 50.0977 61.4609C50.7812 60.875 51.3574 59.918 51.8262 58.5898C52.2949 57.2422 52.6465 55.4355 52.8809 53.1699C53.1348 50.9043 53.2617 47.9844 53.2617 44.4102C53.2617 41.9492 53.1445 39.9863 52.9102 38.5215C52.6953 37.0371 52.4023 35.9141 52.0312 35.1523C51.6797 34.3711 51.2695 33.8633 50.8008 33.6289C50.3516 33.375 49.8926 33.248 49.4238 33.248C48.8574 33.248 48.3594 33.4043 47.9297 33.7168C47.5 34.0098 47.1191 34.3516 46.7871 34.7422C46.4746 35.1328 46.2012 35.5234 45.9668 35.9141C45.752 36.3047 45.5664 36.5977 45.4102 36.793V56.3633C45.4102 56.6172 45.3711 56.9297 45.293 57.3008C45.2148 57.6523 45.0195 57.9941 44.707 58.3262C44.4141 58.6387 43.9648 58.9023 43.3594 59.1172C42.7734 59.3516 41.9629 59.4688 40.9277 59.4688C39.8926 59.4688 39.0723 59.3418 38.4668 59.0879C37.8613 58.8535 37.4023 58.5703 37.0898 58.2383C36.7969 57.9062 36.6113 57.5645 36.5332 57.2129C36.4551 56.8613 36.416 56.5781 36.416 56.3633V18.5703C36.416 18.0039 36.2793 17.5156 36.0059 17.1055C35.752 16.6758 35.3125 16.4609 34.6875 16.4609C34.3555 16.4609 34.0625 16.5195 33.8086 16.6367C33.5742 16.7344 33.3203 16.8906 33.0469 17.1055L32.4609 16.4023C32.9102 16.0312 33.4082 15.6699 33.9551 15.3184C34.502 14.9473 35.0977 14.625 35.7422 14.3516C36.4062 14.0781 37.1094 13.8535 37.8516 13.6777C38.5938 13.502 39.375 13.4141 40.1953 13.4141C41.4648 13.4141 42.4512 13.5898 43.1543 13.9414C43.8574 14.2734 44.375 14.6934 44.707 15.2012C45.0391 15.6895 45.2344 16.2168 45.293 16.7832C45.3711 17.3301 45.4102 17.8184 45.4102 18.248V34.1562ZM75.9082 45.5527C75.9082 46.1777 75.9961 46.8613 76.1719 47.6035C76.3672 48.3262 76.6406 49.0586 76.9922 49.8008C77.3438 50.543 77.7734 51.2559 78.2812 51.9395C78.8086 52.6035 79.4043 53.1992 80.0684 53.7266C80.752 54.2539 81.5039 54.6738 82.3242 54.9863C83.1445 55.2988 84.043 55.4551 85.0195 55.4551C85.7031 55.4551 86.3379 55.377 86.9238 55.2207C87.5098 55.0645 88.0566 54.8496 88.5645 54.5762C89.0723 54.3027 89.5605 53.9902 90.0293 53.6387C90.498 53.2676 90.9668 52.877 91.4355 52.4668L92.168 53.1699C91.7188 53.7754 91.1426 54.4395 90.4395 55.1621C89.7363 55.8848 88.8867 56.5684 87.8906 57.2129C86.8945 57.8379 85.7324 58.3652 84.4043 58.7949C83.0762 59.2051 81.5625 59.4102 79.8633 59.4102C78.1641 59.4102 76.5039 59.1074 74.8828 58.502C73.2812 57.877 71.8555 56.9492 70.6055 55.7188C69.3555 54.4883 68.3496 52.9551 67.5879 51.1191C66.8457 49.2832 66.4746 47.1348 66.4746 44.6738C66.4746 42.8965 66.6992 41.2656 67.1484 39.7812C67.5977 38.2969 68.2031 36.959 68.9648 35.7676C69.7461 34.5762 70.6445 33.5312 71.6602 32.6328C72.6953 31.7344 73.7793 30.9922 74.9121 30.4062C76.0449 29.8008 77.1973 29.3516 78.3691 29.0586C79.5605 28.7461 80.7031 28.5898 81.7969 28.5898C83.2422 28.5898 84.502 28.7461 85.5762 29.0586C86.6504 29.3711 87.5391 29.791 88.2422 30.3184C88.9648 30.8457 89.502 31.4609 89.8535 32.1641C90.2051 32.8477 90.3809 33.5703 90.3809 34.332C90.3809 35.25 90.1172 36.0801 89.5898 36.8223C89.0625 37.5449 88.3594 38.1797 87.4805 38.7266L75.9082 45.5527ZM81.7969 39.6055C82.0508 39.4492 82.2559 39.3027 82.4121 39.166C82.5879 39.0098 82.7246 38.834 82.8223 38.6387C82.9199 38.4238 82.9883 38.1699 83.0273 37.877C83.0859 37.5645 83.1152 37.1836 83.1152 36.7344C83.1152 36.2461 83.0566 35.709 82.9395 35.123C82.8418 34.5176 82.666 33.9512 82.4121 33.4238C82.1582 32.8965 81.8359 32.457 81.4453 32.1055C81.0547 31.7539 80.5859 31.5781 80.0391 31.5781C79.3359 31.5781 78.7305 31.793 78.2227 32.2227C77.7344 32.6328 77.3242 33.1699 76.9922 33.834C76.6797 34.498 76.4258 35.2598 76.2305 36.1191C76.0547 36.959 75.918 37.8086 75.8203 38.668C75.7227 39.5273 75.6641 40.3574 75.6445 41.1582C75.625 41.9395 75.6152 42.6035 75.6152 43.1504L81.7969 39.6055ZM103.096 45.5527C103.096 46.1777 103.184 46.8613 103.359 47.6035C103.555 48.3262 103.828 49.0586 104.18 49.8008C104.531 50.543 104.961 51.2559 105.469 51.9395C105.996 52.6035 106.592 53.1992 107.256 53.7266C107.939 54.2539 108.691 54.6738 109.512 54.9863C110.332 55.2988 111.23 55.4551 112.207 55.4551C112.891 55.4551 113.525 55.377 114.111 55.2207C114.697 55.0645 115.244 54.8496 115.752 54.5762C116.26 54.3027 116.748 53.9902 117.217 53.6387C117.686 53.2676 118.154 52.877 118.623 52.4668L119.355 53.1699C118.906 53.7754 118.33 54.4395 117.627 55.1621C116.924 55.8848 116.074 56.5684 115.078 57.2129C114.082 57.8379 112.92 58.3652 111.592 58.7949C110.264 59.2051 108.75 59.4102 107.051 59.4102C105.352 59.4102 103.691 59.1074 102.07 58.502C100.469 57.877 99.043 56.9492 97.793 55.7188C96.543 54.4883 95.5371 52.9551 94.7754 51.1191C94.0332 49.2832 93.6621 47.1348 93.6621 44.6738C93.6621 42.8965 93.8867 41.2656 94.3359 39.7812C94.7852 38.2969 95.3906 36.959 96.1523 35.7676C96.9336 34.5762 97.832 33.5312 98.8477 32.6328C99.8828 31.7344 100.967 30.9922 102.1 30.4062C103.232 29.8008 104.385 29.3516 105.557 29.0586C106.748 28.7461 107.891 28.5898 108.984 28.5898C110.43 28.5898 111.689 28.7461 112.764 29.0586C113.838 29.3711 114.727 29.791 115.43 30.3184C116.152 30.8457 116.689 31.4609 117.041 32.1641C117.393 32.8477 117.568 33.5703 117.568 34.332C117.568 35.25 117.305 36.0801 116.777 36.8223C116.25 37.5449 115.547 38.1797 114.668 38.7266L103.096 45.5527ZM108.984 39.6055C109.238 39.4492 109.443 39.3027 109.6 39.166C109.775 39.0098 109.912 38.834 110.01 38.6387C110.107 38.4238 110.176 38.1699 110.215 37.877C110.273 37.5645 110.303 37.1836 110.303 36.7344C110.303 36.2461 110.244 35.709 110.127 35.123C110.029 34.5176 109.854 33.9512 109.6 33.4238C109.346 32.8965 109.023 32.457 108.633 32.1055C108.242 31.7539 107.773 31.5781 107.227 31.5781C106.523 31.5781 105.918 31.793 105.41 32.2227C104.922 32.6328 104.512 33.1699 104.18 33.834C103.867 34.498 103.613 35.2598 103.418 36.1191C103.242 36.959 103.105 37.8086 103.008 38.668C102.91 39.5273 102.852 40.3574 102.832 41.1582C102.812 41.9395 102.803 42.6035 102.803 43.1504L108.984 39.6055ZM122.52 34.0977C122.402 33.3164 122.207 32.7109 121.934 32.2812C121.68 31.8516 121.24 31.6367 120.615 31.6367C120.283 31.6367 119.99 31.6953 119.736 31.8125C119.502 31.9297 119.248 32.0957 118.975 32.3105L118.389 31.5781C118.838 31.207 119.336 30.8457 119.883 30.4941C120.449 30.123 121.055 29.8008 121.699 29.5273C122.344 29.2539 123.037 29.0293 123.779 28.8535C124.521 28.6777 125.303 28.5898 126.123 28.5898C127.295 28.5898 128.242 28.7949 128.965 29.2051C129.688 29.5957 130.254 30.0938 130.664 30.6992C131.094 31.2852 131.396 31.9199 131.572 32.6035C131.748 33.2871 131.875 33.9023 131.953 34.4492C132.676 40.3672 133.486 44.8496 134.385 47.8965C135.283 50.9434 136.348 52.4668 137.578 52.4668C138.262 52.4668 138.916 52.0957 139.541 51.3535C140.186 50.6113 140.742 49.5957 141.211 48.3066C141.699 47.0176 142.09 45.5137 142.383 43.7949C142.676 42.0762 142.822 40.2402 142.822 38.2871C142.822 36.998 142.734 35.9141 142.559 35.0352C142.383 34.1367 142.188 33.3848 141.973 32.7793C141.758 32.1738 141.562 31.6758 141.387 31.2852C141.211 30.875 141.123 30.5137 141.123 30.2012C141.123 29.9082 141.24 29.6641 141.475 29.4688C141.709 29.2734 141.982 29.1074 142.295 28.9707C142.627 28.834 142.959 28.7363 143.291 28.6777C143.643 28.6191 143.926 28.5898 144.141 28.5898C144.707 28.5898 145.117 28.668 145.371 28.8242C145.625 28.9805 145.83 29.2832 145.986 29.7324C146.162 30.2988 146.279 31.0508 146.338 31.9883C146.416 32.9062 146.455 33.8926 146.455 34.9473C146.455 36.4512 146.348 38.1016 146.133 39.8984C145.938 41.6953 145.625 43.502 145.195 45.3184C144.785 47.1348 144.258 48.8926 143.613 50.5918C142.969 52.291 142.197 53.8047 141.299 55.1328C140.42 56.4414 139.414 57.4961 138.281 58.2969C137.168 59.0781 135.918 59.4688 134.531 59.4688C132.91 59.4688 131.504 59 130.312 58.0625C129.121 57.125 128.105 55.9043 127.266 54.4004C126.445 52.8965 125.762 51.207 125.215 49.332C124.668 47.457 124.219 45.582 123.867 43.707C123.535 41.8125 123.262 40.0254 123.047 38.3457C122.852 36.6465 122.676 35.2305 122.52 34.0977ZM161.309 56.3633C161.309 56.6172 161.26 56.9297 161.162 57.3008C161.084 57.6523 160.879 57.9941 160.547 58.3262C160.234 58.6387 159.775 58.9023 159.17 59.1172C158.564 59.3516 157.744 59.4688 156.709 59.4688C155.674 59.4688 154.863 59.3418 154.277 59.0879C153.691 58.8535 153.252 58.5703 152.959 58.2383C152.666 57.9062 152.48 57.5645 152.402 57.2129C152.344 56.8613 152.314 56.5781 152.314 56.3633V33.7461C152.314 33.1797 152.178 32.6914 151.904 32.2812C151.65 31.8516 151.211 31.6367 150.586 31.6367C150.254 31.6367 149.971 31.6953 149.736 31.8125C149.502 31.9297 149.248 32.0957 148.975 32.3105L148.359 31.5781C148.809 31.207 149.307 30.8457 149.854 30.4941C150.42 30.123 151.025 29.8008 151.67 29.5273C152.314 29.2539 153.008 29.0293 153.75 28.8535C154.492 28.6777 155.273 28.5898 156.094 28.5898C157.363 28.5898 158.35 28.7656 159.053 29.1172C159.756 29.4492 160.273 29.8691 160.605 30.377C160.938 30.8652 161.133 31.3926 161.191 31.959C161.27 32.5254 161.309 33.0234 161.309 33.4531V56.3633ZM151.406 21.9102C151.406 21.3633 151.523 20.8457 151.758 20.3574C152.012 19.8496 152.354 19.4102 152.783 19.0391C153.232 18.668 153.74 18.375 154.307 18.1602C154.893 17.9453 155.527 17.8379 156.211 17.8379C156.875 17.8379 157.49 17.9453 158.057 18.1602C158.643 18.375 159.15 18.668 159.58 19.0391C160.01 19.4102 160.342 19.8496 160.576 20.3574C160.83 20.8457 160.957 21.3633 160.957 21.9102C160.957 22.4766 160.83 23.0039 160.576 23.4922C160.342 23.9805 160.01 24.4102 159.58 24.7812C159.15 25.1328 158.643 25.416 158.057 25.6309C157.49 25.8457 156.875 25.9531 156.211 25.9531C155.527 25.9531 154.893 25.8457 154.307 25.6309C153.74 25.416 153.232 25.1328 152.783 24.7812C152.354 24.4102 152.012 23.9805 151.758 23.4922C151.523 23.0039 151.406 22.4766 151.406 21.9102ZM176.279 45.5527C176.279 46.1777 176.367 46.8613 176.543 47.6035C176.738 48.3262 177.012 49.0586 177.363 49.8008C177.715 50.543 178.145 51.2559 178.652 51.9395C179.18 52.6035 179.775 53.1992 180.439 53.7266C181.123 54.2539 181.875 54.6738 182.695 54.9863C183.516 55.2988 184.414 55.4551 185.391 55.4551C186.074 55.4551 186.709 55.377 187.295 55.2207C187.881 55.0645 188.428 54.8496 188.936 54.5762C189.443 54.3027 189.932 53.9902 190.4 53.6387C190.869 53.2676 191.338 52.877 191.807 52.4668L192.539 53.1699C192.09 53.7754 191.514 54.4395 190.811 55.1621C190.107 55.8848 189.258 56.5684 188.262 57.2129C187.266 57.8379 186.104 58.3652 184.775 58.7949C183.447 59.2051 181.934 59.4102 180.234 59.4102C178.535 59.4102 176.875 59.1074 175.254 58.502C173.652 57.877 172.227 56.9492 170.977 55.7188C169.727 54.4883 168.721 52.9551 167.959 51.1191C167.217 49.2832 166.846 47.1348 166.846 44.6738C166.846 42.8965 167.07 41.2656 167.52 39.7812C167.969 38.2969 168.574 36.959 169.336 35.7676C170.117 34.5762 171.016 33.5312 172.031 32.6328C173.066 31.7344 174.15 30.9922 175.283 30.4062C176.416 29.8008 177.568 29.3516 178.74 29.0586C179.932 28.7461 181.074 28.5898 182.168 28.5898C183.613 28.5898 184.873 28.7461 185.947 29.0586C187.021 29.3711 187.91 29.791 188.613 30.3184C189.336 30.8457 189.873 31.4609 190.225 32.1641C190.576 32.8477 190.752 33.5703 190.752 34.332C190.752 35.25 190.488 36.0801 189.961 36.8223C189.434 37.5449 188.73 38.1797 187.852 38.7266L176.279 45.5527ZM182.168 39.6055C182.422 39.4492 182.627 39.3027 182.783 39.166C182.959 39.0098 183.096 38.834 183.193 38.6387C183.291 38.4238 183.359 38.1699 183.398 37.877C183.457 37.5645 183.486 37.1836 183.486 36.7344C183.486 36.2461 183.428 35.709 183.311 35.123C183.213 34.5176 183.037 33.9512 182.783 33.4238C182.529 32.8965 182.207 32.457 181.816 32.1055C181.426 31.7539 180.957 31.5781 180.41 31.5781C179.707 31.5781 179.102 31.793 178.594 32.2227C178.105 32.6328 177.695 33.1699 177.363 33.834C177.051 34.498 176.797 35.2598 176.602 36.1191C176.426 36.959 176.289 37.8086 176.191 38.668C176.094 39.5273 176.035 40.3574 176.016 41.1582C175.996 41.9395 175.986 42.6035 175.986 43.1504L182.168 39.6055Z" fill="url(#paint0_linear)"/>
<defs>
<linearGradient id="paint0_linear" x2="1" gradientUnits="userSpaceOnUse" gradientTransform="translate(219.112) scale(219.112 75) rotate(90)">
<stop stop-color="white"/>
<stop offset="1" stop-color="white"/>
</linearGradient>
</defs>
</svg>
