<svg width="1080" height="1080" viewBox="0 0 1080 1080" fill="none" xmlns="http://www.w3.org/2000/svg">
<rect width="1080" height="1080" fill="url(#paint0_linear)"/>
<path d="M465.5 715.721C464.973 715.721 464.357 715.828 463.654 716.043C462.951 716.258 462.229 716.668 461.486 717.273C460.764 717.859 460.051 718.689 459.348 719.764C458.645 720.838 458.01 722.234 457.443 723.953C456.896 725.652 456.447 727.723 456.096 730.164C455.764 732.605 455.598 735.486 455.598 738.807C455.598 741.971 455.764 744.715 456.096 747.039C456.447 749.363 456.906 751.346 457.473 752.986C458.059 754.607 458.723 755.936 459.465 756.971C460.207 758.006 460.988 758.807 461.809 759.373C462.629 759.959 463.449 760.359 464.27 760.574C465.09 760.789 465.861 760.896 466.584 760.896C467.346 760.896 468.117 760.799 468.898 760.604C469.68 760.408 470.441 760.125 471.184 759.754C471.945 759.383 472.668 758.934 473.352 758.406C474.055 757.879 474.699 757.273 475.285 756.59L476.604 757.908C476.018 758.631 475.314 759.363 474.494 760.105C473.674 760.867 472.717 761.551 471.623 762.156C470.549 762.781 469.338 763.289 467.99 763.68C466.643 764.07 465.148 764.266 463.508 764.266C460.949 764.266 458.566 763.777 456.359 762.801C454.172 761.824 452.258 760.301 450.617 758.23C448.996 756.18 447.717 753.543 446.779 750.32C445.861 747.098 445.402 743.24 445.402 738.748C445.402 734.529 445.891 730.828 446.867 727.645C447.844 724.461 449.172 721.805 450.852 719.676C452.531 717.527 454.504 715.916 456.77 714.842C459.035 713.748 461.447 713.201 464.006 713.201C465.705 713.201 467.248 713.367 468.635 713.699C470.041 714.012 471.252 714.48 472.268 715.105C473.283 715.711 474.064 716.473 474.611 717.391C475.178 718.289 475.461 719.314 475.461 720.467C475.461 720.994 475.373 721.551 475.197 722.137C475.021 722.703 474.748 723.23 474.377 723.719C474.025 724.188 473.586 724.578 473.059 724.891C472.531 725.184 471.916 725.33 471.213 725.33C470.588 725.33 470.1 725.193 469.748 724.92C469.416 724.646 469.162 724.285 468.986 723.836C468.83 723.387 468.723 722.879 468.664 722.312C468.625 721.727 468.596 721.131 468.576 720.525C468.557 719.92 468.508 719.334 468.43 718.768C468.371 718.182 468.234 717.664 468.02 717.215C467.824 716.766 467.531 716.404 467.141 716.131C466.75 715.857 466.203 715.721 465.5 715.721ZM488.41 732.156C489.133 731.121 489.953 730.193 490.871 729.373C491.242 729.021 491.652 728.68 492.102 728.348C492.57 728.016 493.059 727.723 493.566 727.469C494.094 727.195 494.641 726.98 495.207 726.824C495.793 726.668 496.389 726.59 496.994 726.59C498.303 726.59 499.475 726.844 500.51 727.352C501.545 727.859 502.414 728.709 503.117 729.9C503.82 731.092 504.357 732.674 504.729 734.646C505.1 736.6 505.285 739.031 505.285 741.941C505.285 744.773 505.031 747.234 504.523 749.324C504.016 751.414 503.352 753.191 502.531 754.656C501.711 756.121 500.783 757.312 499.748 758.23C498.713 759.168 497.668 759.9 496.613 760.428C495.559 760.955 494.543 761.316 493.566 761.512C492.59 761.727 491.75 761.844 491.047 761.863L490.754 760.662C491.633 760.447 492.414 760.047 493.098 759.461C493.781 758.875 494.357 757.918 494.826 756.59C495.295 755.242 495.646 753.436 495.881 751.17C496.135 748.904 496.262 745.984 496.262 742.41C496.262 739.949 496.145 737.986 495.91 736.521C495.695 735.037 495.402 733.914 495.031 733.152C494.68 732.371 494.27 731.863 493.801 731.629C493.352 731.375 492.893 731.248 492.424 731.248C491.857 731.248 491.359 731.404 490.93 731.717C490.5 732.01 490.119 732.352 489.787 732.742C489.475 733.133 489.201 733.523 488.967 733.914C488.752 734.305 488.566 734.598 488.41 734.793V754.363C488.41 754.617 488.371 754.93 488.293 755.301C488.215 755.652 488.02 755.994 487.707 756.326C487.414 756.639 486.965 756.902 486.359 757.117C485.773 757.352 484.963 757.469 483.928 757.469C482.893 757.469 482.072 757.342 481.467 757.088C480.861 756.854 480.402 756.57 480.09 756.238C479.797 755.906 479.611 755.564 479.533 755.213C479.455 754.861 479.416 754.578 479.416 754.363V716.57C479.416 716.004 479.279 715.516 479.006 715.105C478.752 714.676 478.312 714.461 477.688 714.461C477.355 714.461 477.062 714.52 476.809 714.637C476.574 714.734 476.32 714.891 476.047 715.105L475.461 714.402C475.91 714.031 476.408 713.67 476.955 713.318C477.502 712.947 478.098 712.625 478.742 712.352C479.406 712.078 480.109 711.854 480.852 711.678C481.594 711.502 482.375 711.414 483.195 711.414C484.465 711.414 485.451 711.59 486.154 711.941C486.857 712.273 487.375 712.693 487.707 713.201C488.039 713.689 488.234 714.217 488.293 714.783C488.371 715.33 488.41 715.818 488.41 716.248V732.156ZM518.908 743.553C518.908 744.178 518.996 744.861 519.172 745.604C519.367 746.326 519.641 747.059 519.992 747.801C520.344 748.543 520.773 749.256 521.281 749.939C521.809 750.604 522.404 751.199 523.068 751.727C523.752 752.254 524.504 752.674 525.324 752.986C526.145 753.299 527.043 753.455 528.02 753.455C528.703 753.455 529.338 753.377 529.924 753.221C530.51 753.064 531.057 752.85 531.564 752.576C532.072 752.303 532.561 751.99 533.029 751.639C533.498 751.268 533.967 750.877 534.436 750.467L535.168 751.17C534.719 751.775 534.143 752.439 533.439 753.162C532.736 753.885 531.887 754.568 530.891 755.213C529.895 755.838 528.732 756.365 527.404 756.795C526.076 757.205 524.562 757.41 522.863 757.41C521.164 757.41 519.504 757.107 517.883 756.502C516.281 755.877 514.855 754.949 513.605 753.719C512.355 752.488 511.35 750.955 510.588 749.119C509.846 747.283 509.475 745.135 509.475 742.674C509.475 740.896 509.699 739.266 510.148 737.781C510.598 736.297 511.203 734.959 511.965 733.768C512.746 732.576 513.645 731.531 514.66 730.633C515.695 729.734 516.779 728.992 517.912 728.406C519.045 727.801 520.197 727.352 521.369 727.059C522.561 726.746 523.703 726.59 524.797 726.59C526.242 726.59 527.502 726.746 528.576 727.059C529.65 727.371 530.539 727.791 531.242 728.318C531.965 728.846 532.502 729.461 532.854 730.164C533.205 730.848 533.381 731.57 533.381 732.332C533.381 733.25 533.117 734.08 532.59 734.822C532.062 735.545 531.359 736.18 530.48 736.727L518.908 743.553ZM524.797 737.605C525.051 737.449 525.256 737.303 525.412 737.166C525.588 737.01 525.725 736.834 525.822 736.639C525.92 736.424 525.988 736.17 526.027 735.877C526.086 735.564 526.115 735.184 526.115 734.734C526.115 734.246 526.057 733.709 525.939 733.123C525.842 732.518 525.666 731.951 525.412 731.424C525.158 730.896 524.836 730.457 524.445 730.105C524.055 729.754 523.586 729.578 523.039 729.578C522.336 729.578 521.73 729.793 521.223 730.223C520.734 730.633 520.324 731.17 519.992 731.834C519.68 732.498 519.426 733.26 519.23 734.119C519.055 734.959 518.918 735.809 518.82 736.668C518.723 737.527 518.664 738.357 518.645 739.158C518.625 739.939 518.615 740.604 518.615 741.15L524.797 737.605ZM546.096 743.553C546.096 744.178 546.184 744.861 546.359 745.604C546.555 746.326 546.828 747.059 547.18 747.801C547.531 748.543 547.961 749.256 548.469 749.939C548.996 750.604 549.592 751.199 550.256 751.727C550.939 752.254 551.691 752.674 552.512 752.986C553.332 753.299 554.23 753.455 555.207 753.455C555.891 753.455 556.525 753.377 557.111 753.221C557.697 753.064 558.244 752.85 558.752 752.576C559.26 752.303 559.748 751.99 560.217 751.639C560.686 751.268 561.154 750.877 561.623 750.467L562.355 751.17C561.906 751.775 561.33 752.439 560.627 753.162C559.924 753.885 559.074 754.568 558.078 755.213C557.082 755.838 555.92 756.365 554.592 756.795C553.264 757.205 551.75 757.41 550.051 757.41C548.352 757.41 546.691 757.107 545.07 756.502C543.469 755.877 542.043 754.949 540.793 753.719C539.543 752.488 538.537 750.955 537.775 749.119C537.033 747.283 536.662 745.135 536.662 742.674C536.662 740.896 536.887 739.266 537.336 737.781C537.785 736.297 538.391 734.959 539.152 733.768C539.934 732.576 540.832 731.531 541.848 730.633C542.883 729.734 543.967 728.992 545.1 728.406C546.232 727.801 547.385 727.352 548.557 727.059C549.748 726.746 550.891 726.59 551.984 726.59C553.43 726.59 554.689 726.746 555.764 727.059C556.838 727.371 557.727 727.791 558.43 728.318C559.152 728.846 559.689 729.461 560.041 730.164C560.393 730.848 560.568 731.57 560.568 732.332C560.568 733.25 560.305 734.08 559.777 734.822C559.25 735.545 558.547 736.18 557.668 736.727L546.096 743.553ZM551.984 737.605C552.238 737.449 552.443 737.303 552.6 737.166C552.775 737.01 552.912 736.834 553.01 736.639C553.107 736.424 553.176 736.17 553.215 735.877C553.273 735.564 553.303 735.184 553.303 734.734C553.303 734.246 553.244 733.709 553.127 733.123C553.029 732.518 552.854 731.951 552.6 731.424C552.346 730.896 552.023 730.457 551.633 730.105C551.242 729.754 550.773 729.578 550.227 729.578C549.523 729.578 548.918 729.793 548.41 730.223C547.922 730.633 547.512 731.17 547.18 731.834C546.867 732.498 546.613 733.26 546.418 734.119C546.242 734.959 546.105 735.809 546.008 736.668C545.91 737.527 545.852 738.357 545.832 739.158C545.812 739.939 545.803 740.604 545.803 741.15L551.984 737.605ZM565.52 732.098C565.402 731.316 565.207 730.711 564.934 730.281C564.68 729.852 564.24 729.637 563.615 729.637C563.283 729.637 562.99 729.695 562.736 729.812C562.502 729.93 562.248 730.096 561.975 730.311L561.389 729.578C561.838 729.207 562.336 728.846 562.883 728.494C563.449 728.123 564.055 727.801 564.699 727.527C565.344 727.254 566.037 727.029 566.779 726.854C567.521 726.678 568.303 726.59 569.123 726.59C570.295 726.59 571.242 726.795 571.965 727.205C572.688 727.596 573.254 728.094 573.664 728.699C574.094 729.285 574.396 729.92 574.572 730.604C574.748 731.287 574.875 731.902 574.953 732.449C575.676 738.367 576.486 742.85 577.385 745.896C578.283 748.943 579.348 750.467 580.578 750.467C581.262 750.467 581.916 750.096 582.541 749.354C583.186 748.611 583.742 747.596 584.211 746.307C584.699 745.018 585.09 743.514 585.383 741.795C585.676 740.076 585.822 738.24 585.822 736.287C585.822 734.998 585.734 733.914 585.559 733.035C585.383 732.137 585.188 731.385 584.973 730.779C584.758 730.174 584.562 729.676 584.387 729.285C584.211 728.875 584.123 728.514 584.123 728.201C584.123 727.908 584.24 727.664 584.475 727.469C584.709 727.273 584.982 727.107 585.295 726.971C585.627 726.834 585.959 726.736 586.291 726.678C586.643 726.619 586.926 726.59 587.141 726.59C587.707 726.59 588.117 726.668 588.371 726.824C588.625 726.98 588.83 727.283 588.986 727.732C589.162 728.299 589.279 729.051 589.338 729.988C589.416 730.906 589.455 731.893 589.455 732.947C589.455 734.451 589.348 736.102 589.133 737.898C588.938 739.695 588.625 741.502 588.195 743.318C587.785 745.135 587.258 746.893 586.613 748.592C585.969 750.291 585.197 751.805 584.299 753.133C583.42 754.441 582.414 755.496 581.281 756.297C580.168 757.078 578.918 757.469 577.531 757.469C575.91 757.469 574.504 757 573.312 756.062C572.121 755.125 571.105 753.904 570.266 752.4C569.445 750.896 568.762 749.207 568.215 747.332C567.668 745.457 567.219 743.582 566.867 741.707C566.535 739.812 566.262 738.025 566.047 736.346C565.852 734.646 565.676 733.23 565.52 732.098ZM604.309 754.363C604.309 754.617 604.26 754.93 604.162 755.301C604.084 755.652 603.879 755.994 603.547 756.326C603.234 756.639 602.775 756.902 602.17 757.117C601.564 757.352 600.744 757.469 599.709 757.469C598.674 757.469 597.863 757.342 597.277 757.088C596.691 756.854 596.252 756.57 595.959 756.238C595.666 755.906 595.48 755.564 595.402 755.213C595.344 754.861 595.314 754.578 595.314 754.363V731.746C595.314 731.18 595.178 730.691 594.904 730.281C594.65 729.852 594.211 729.637 593.586 729.637C593.254 729.637 592.971 729.695 592.736 729.812C592.502 729.93 592.248 730.096 591.975 730.311L591.359 729.578C591.809 729.207 592.307 728.846 592.854 728.494C593.42 728.123 594.025 727.801 594.67 727.527C595.314 727.254 596.008 727.029 596.75 726.854C597.492 726.678 598.273 726.59 599.094 726.59C600.363 726.59 601.35 726.766 602.053 727.117C602.756 727.449 603.273 727.869 603.605 728.377C603.938 728.865 604.133 729.393 604.191 729.959C604.27 730.525 604.309 731.023 604.309 731.453V754.363ZM594.406 719.91C594.406 719.363 594.523 718.846 594.758 718.357C595.012 717.85 595.354 717.41 595.783 717.039C596.232 716.668 596.74 716.375 597.307 716.16C597.893 715.945 598.527 715.838 599.211 715.838C599.875 715.838 600.49 715.945 601.057 716.16C601.643 716.375 602.15 716.668 602.58 717.039C603.01 717.41 603.342 717.85 603.576 718.357C603.83 718.846 603.957 719.363 603.957 719.91C603.957 720.477 603.83 721.004 603.576 721.492C603.342 721.98 603.01 722.41 602.58 722.781C602.15 723.133 601.643 723.416 601.057 723.631C600.49 723.846 599.875 723.953 599.211 723.953C598.527 723.953 597.893 723.846 597.307 723.631C596.74 723.416 596.232 723.133 595.783 722.781C595.354 722.41 595.012 721.98 594.758 721.492C594.523 721.004 594.406 720.477 594.406 719.91ZM619.279 743.553C619.279 744.178 619.367 744.861 619.543 745.604C619.738 746.326 620.012 747.059 620.363 747.801C620.715 748.543 621.145 749.256 621.652 749.939C622.18 750.604 622.775 751.199 623.439 751.727C624.123 752.254 624.875 752.674 625.695 752.986C626.516 753.299 627.414 753.455 628.391 753.455C629.074 753.455 629.709 753.377 630.295 753.221C630.881 753.064 631.428 752.85 631.936 752.576C632.443 752.303 632.932 751.99 633.4 751.639C633.869 751.268 634.338 750.877 634.807 750.467L635.539 751.17C635.09 751.775 634.514 752.439 633.811 753.162C633.107 753.885 632.258 754.568 631.262 755.213C630.266 755.838 629.104 756.365 627.775 756.795C626.447 757.205 624.934 757.41 623.234 757.41C621.535 757.41 619.875 757.107 618.254 756.502C616.652 755.877 615.227 754.949 613.977 753.719C612.727 752.488 611.721 750.955 610.959 749.119C610.217 747.283 609.846 745.135 609.846 742.674C609.846 740.896 610.07 739.266 610.52 737.781C610.969 736.297 611.574 734.959 612.336 733.768C613.117 732.576 614.016 731.531 615.031 730.633C616.066 729.734 617.15 728.992 618.283 728.406C619.416 727.801 620.568 727.352 621.74 727.059C622.932 726.746 624.074 726.59 625.168 726.59C626.613 726.59 627.873 726.746 628.947 727.059C630.021 727.371 630.91 727.791 631.613 728.318C632.336 728.846 632.873 729.461 633.225 730.164C633.576 730.848 633.752 731.57 633.752 732.332C633.752 733.25 633.488 734.08 632.961 734.822C632.434 735.545 631.73 736.18 630.852 736.727L619.279 743.553ZM625.168 737.605C625.422 737.449 625.627 737.303 625.783 737.166C625.959 737.01 626.096 736.834 626.193 736.639C626.291 736.424 626.359 736.17 626.398 735.877C626.457 735.564 626.486 735.184 626.486 734.734C626.486 734.246 626.428 733.709 626.311 733.123C626.213 732.518 626.037 731.951 625.783 731.424C625.529 730.896 625.207 730.457 624.816 730.105C624.426 729.754 623.957 729.578 623.41 729.578C622.707 729.578 622.102 729.793 621.594 730.223C621.105 730.633 620.695 731.17 620.363 731.834C620.051 732.498 619.797 733.26 619.602 734.119C619.426 734.959 619.289 735.809 619.191 736.668C619.094 737.527 619.035 738.357 619.016 739.158C618.996 739.939 618.986 740.604 618.986 741.15L625.168 737.605Z" fill="url(#paint1_linear)"/>
<path d="M540 698C627.261 698 698 627.261 698 540C698 452.739 627.261 382 540 382C452.739 382 382 452.739 382 540C382 627.261 452.739 698 540 698Z" fill="url(#paint2_linear)"/>
<path d="M540.5 425L566.431 504.809H650.347L582.458 554.133L608.389 633.941L540.5 584.617L472.611 633.941L498.542 554.133L430.653 504.809H514.569L540.5 425Z" fill="url(#paint3_linear)"/>
<path d="M368 610V654" stroke="#12C2E9" stroke-width="2" stroke-linecap="round" stroke-linejoin="round"/>
<path d="M378 618H363C361.143 618 359.363 618.737 358.05 620.05C356.737 621.363 356 623.143 356 625C356 626.857 356.737 628.637 358.05 629.95C359.363 631.263 361.143 632 363 632H373C374.857 632 376.637 632.737 377.95 634.05C379.263 635.363 380 637.143 380 639C380 640.857 379.263 642.637 377.95 643.95C376.637 645.263 374.857 646 373 646H356" stroke="#12C2E9" stroke-width="2" stroke-linecap="round" stroke-linejoin="round"/>
<path d="M946 423V467" stroke="#F64F59" stroke-width="2" stroke-linecap="round" stroke-linejoin="round"/>
<path d="M956 431H941C939.143 431 937.363 431.737 936.05 433.05C934.737 434.363 934 436.143 934 438C934 439.857 934.737 441.637 936.05 442.95C937.363 444.263 939.143 445 941 445H951C952.857 445 954.637 445.737 955.95 447.05C957.263 448.363 958 450.143 958 452C958 453.857 957.263 455.637 955.95 456.95C954.637 458.263 952.857 459 951 459H934" stroke="#F64F59" stroke-width="2" stroke-linecap="round" stroke-linejoin="round"/>
<path d="M609 126V118.26C609.075 117.306 608.946 116.348 608.622 115.448C608.298 114.548 607.786 113.727 607.12 113.04C613.4 112.34 620 109.96 620 99.04C619.999 96.2477 618.925 93.5624 617 91.54C617.912 89.097 617.847 86.3967 616.82 84C616.82 84 614.46 83.3 609 86.96C604.416 85.7176 599.584 85.7176 595 86.96C589.54 83.3 587.18 84 587.18 84C586.153 86.3967 586.088 89.097 587 91.54C585.06 93.5774 583.985 96.2869 584 99.1C584 109.94 590.6 112.32 596.88 113.1C596.222 113.78 595.715 114.591 595.391 115.48C595.067 116.369 594.934 117.316 595 118.26V126M595 120C585 123 585 115 581 114L595 120Z" stroke="#00F260" stroke-width="2" stroke-linecap="round" stroke-linejoin="round"/>
<path d="M785 467V459.26C785.075 458.306 784.946 457.348 784.622 456.448C784.298 455.548 783.786 454.727 783.12 454.04C789.4 453.34 796 450.96 796 440.04C795.999 437.248 794.925 434.562 793 432.54C793.912 430.097 793.847 427.397 792.82 425C792.82 425 790.46 424.3 785 427.96C780.416 426.718 775.584 426.718 771 427.96C765.54 424.3 763.18 425 763.18 425C762.153 427.397 762.088 430.097 763 432.54C761.06 434.577 759.985 437.287 760 440.1C760 450.94 766.6 453.32 772.88 454.1C772.222 454.78 771.715 455.591 771.391 456.48C771.067 457.369 770.934 458.316 771 459.26V467M771 461C761 464 761 456 757 455L771 461Z" stroke="#FF008A" stroke-width="2" stroke-linecap="round" stroke-linejoin="round"/>
<path d="M834 789V781.26C834.075 780.306 833.946 779.348 833.622 778.448C833.298 777.548 832.786 776.727 832.12 776.04C838.4 775.34 845 772.96 845 762.04C844.999 759.248 843.925 756.562 842 754.54C842.912 752.097 842.847 749.397 841.82 747C841.82 747 839.46 746.3 834 749.96C829.416 748.718 824.584 748.718 820 749.96C814.54 746.3 812.18 747 812.18 747C811.153 749.397 811.088 752.097 812 754.54C810.06 756.577 808.985 759.287 809 762.1C809 772.94 815.6 775.32 821.88 776.1C821.222 776.78 820.715 777.591 820.391 778.48C820.067 779.369 819.934 780.316 820 781.26V789M820 783C810 786 810 778 806 777L820 783Z" stroke="#12C2E9" stroke-width="2" stroke-linecap="round" stroke-linejoin="round"/>
<path d="M814 1059V1051.26C814.075 1050.31 813.946 1049.35 813.622 1048.45C813.298 1047.55 812.786 1046.73 812.12 1046.04C818.4 1045.34 825 1042.96 825 1032.04C824.999 1029.25 823.925 1026.56 822 1024.54C822.912 1022.1 822.847 1019.4 821.82 1017C821.82 1017 819.46 1016.3 814 1019.96C809.416 1018.72 804.584 1018.72 800 1019.96C794.54 1016.3 792.18 1017 792.18 1017C791.153 1019.4 791.088 1022.1 792 1024.54C790.06 1026.58 788.985 1029.29 789 1032.1C789 1042.94 795.6 1045.32 801.88 1046.1C801.222 1046.78 800.715 1047.59 800.391 1048.48C800.067 1049.37 799.934 1050.32 800 1051.26V1059M800 1053C790 1056 790 1048 786 1047L800 1053Z" stroke="#FFEC87" stroke-width="2" stroke-linecap="round" stroke-linejoin="round"/>
<path d="M176 138C179.314 138 182 135.314 182 132C182 128.686 179.314 126 176 126C172.686 126 170 128.686 170 132C170 135.314 172.686 138 176 138Z" stroke="#FF5C00" stroke-width="2" stroke-linecap="round" stroke-linejoin="round"/>
<path d="M176 166V138" stroke="#FF5C00" stroke-width="2" stroke-linecap="round" stroke-linejoin="round"/>
<path d="M162 146H156C156 151.304 158.107 156.391 161.858 160.142C165.609 163.893 170.696 166 176 166C181.304 166 186.391 163.893 190.142 160.142C193.893 156.391 196 151.304 196 146H190" stroke="#FF5C00" stroke-width="2" stroke-linecap="round" stroke-linejoin="round"/>
<path d="M870 243C873.314 243 876 240.314 876 237C876 233.686 873.314 231 870 231C866.686 231 864 233.686 864 237C864 240.314 866.686 243 870 243Z" stroke="#00FFF0" stroke-width="2" stroke-linecap="round" stroke-linejoin="round"/>
<path d="M870 271V243" stroke="#00FFF0" stroke-width="2" stroke-linecap="round" stroke-linejoin="round"/>
<path d="M856 251H850C850 256.304 852.107 261.391 855.858 265.142C859.609 268.893 864.696 271 870 271C875.304 271 880.391 268.893 884.142 265.142C887.893 261.391 890 256.304 890 251H884" stroke="#00FFF0" stroke-width="2" stroke-linecap="round" stroke-linejoin="round"/>
<path d="M238 441C241.314 441 244 438.314 244 435C244 431.686 241.314 429 238 429C234.686 429 232 431.686 232 435C232 438.314 234.686 441 238 441Z" stroke="#FFEC87" stroke-width="2" stroke-linecap="round" stroke-linejoin="round"/>
<path d="M238 469V441" stroke="#FFEC87" stroke-width="2" stroke-linecap="round" stroke-linejoin="round"/>
<path d="M224 449H218C218 454.304 220.107 459.391 223.858 463.142C227.609 466.893 232.696 469 238 469C243.304 469 248.391 466.893 252.142 463.142C255.893 459.391 258 454.304 258 449H252" stroke="#FFEC87" stroke-width="2" stroke-linecap="round" stroke-linejoin="round"/>
<path d="M107 897C110.314 897 113 894.314 113 891C113 887.686 110.314 885 107 885C103.686 885 101 887.686 101 891C101 894.314 103.686 897 107 897Z" stroke="#00F260" stroke-width="2" stroke-linecap="round" stroke-linejoin="round"/>
<path d="M107 925V897" stroke="#00F260" stroke-width="2" stroke-linecap="round" stroke-linejoin="round"/>
<path d="M93 905H87C87 910.304 89.1071 915.391 92.8579 919.142C96.6086 922.893 101.696 925 107 925C112.304 925 117.391 922.893 121.142 919.142C124.893 915.391 127 910.304 127 905H121" stroke="#00F260" stroke-width="2" stroke-linecap="round" stroke-linejoin="round"/>
<path d="M940 913C943.314 913 946 910.314 946 907C946 903.686 943.314 901 940 901C936.686 901 934 903.686 934 907C934 910.314 936.686 913 940 913Z" stroke="#12C2E9" stroke-width="2" stroke-linecap="round" stroke-linejoin="round"/>
<path d="M940 941V913" stroke="#12C2E9" stroke-width="2" stroke-linecap="round" stroke-linejoin="round"/>
<path d="M926 921H920C920 926.304 922.107 931.391 925.858 935.142C929.609 938.893 934.696 941 940 941C945.304 941 950.391 938.893 954.142 935.142C957.893 931.391 960 926.304 960 921H954" stroke="#12C2E9" stroke-width="2" stroke-linecap="round" stroke-linejoin="round"/>
<path d="M406 118C417.046 118 426 109.046 426 98C426 86.9543 417.046 78 406 78C394.954 78 386 86.9543 386 98C386 109.046 394.954 118 406 118Z" stroke="white" stroke-width="2" stroke-linecap="round" stroke-linejoin="round"/>
<path d="M410.62 90L422.1 109.88" stroke="white" stroke-width="2" stroke-linecap="round" stroke-linejoin="round"/>
<path d="M401.38 90H424.34" stroke="white" stroke-width="2" stroke-linecap="round" stroke-linejoin="round"/>
<path d="M396.76 98L408.24 78.12" stroke="white" stroke-width="2" stroke-linecap="round" stroke-linejoin="round"/>
<path d="M401.38 106L389.9 86.12" stroke="white" stroke-width="2" stroke-linecap="round" stroke-linejoin="round"/>
<path d="M410.62 106H387.66" stroke="white" stroke-width="2" stroke-linecap="round" stroke-linejoin="round"/>
<path d="M415.24 98L403.76 117.88" stroke="white" stroke-width="2" stroke-linecap="round" stroke-linejoin="round"/>
<path d="M577 295C588.046 295 597 286.046 597 275C597 263.954 588.046 255 577 255C565.954 255 557 263.954 557 275C557 286.046 565.954 295 577 295Z" stroke="#C471ED" stroke-width="2" stroke-linecap="round" stroke-linejoin="round"/>
<path d="M581.62 267L593.1 286.88" stroke="#C471ED" stroke-width="2" stroke-linecap="round" stroke-linejoin="round"/>
<path d="M572.38 267H595.34" stroke="#C471ED" stroke-width="2" stroke-linecap="round" stroke-linejoin="round"/>
<path d="M567.76 275L579.24 255.12" stroke="#C471ED" stroke-width="2" stroke-linecap="round" stroke-linejoin="round"/>
<path d="M572.38 283L560.9 263.12" stroke="#C471ED" stroke-width="2" stroke-linecap="round" stroke-linejoin="round"/>
<path d="M581.62 283H558.66" stroke="#C471ED" stroke-width="2" stroke-linecap="round" stroke-linejoin="round"/>
<path d="M586.24 275L574.76 294.88" stroke="#C471ED" stroke-width="2" stroke-linecap="round" stroke-linejoin="round"/>
<path d="M172 678C183.046 678 192 669.046 192 658C192 646.954 183.046 638 172 638C160.954 638 152 646.954 152 658C152 669.046 160.954 678 172 678Z" stroke="#C471ED" stroke-width="2" stroke-linecap="round" stroke-linejoin="round"/>
<path d="M176.62 650L188.1 669.88" stroke="#C471ED" stroke-width="2" stroke-linecap="round" stroke-linejoin="round"/>
<path d="M167.38 650H190.34" stroke="#C471ED" stroke-width="2" stroke-linecap="round" stroke-linejoin="round"/>
<path d="M162.76 658L174.24 638.12" stroke="#C471ED" stroke-width="2" stroke-linecap="round" stroke-linejoin="round"/>
<path d="M167.38 666L155.9 646.12" stroke="#C471ED" stroke-width="2" stroke-linecap="round" stroke-linejoin="round"/>
<path d="M176.62 666H153.66" stroke="#C471ED" stroke-width="2" stroke-linecap="round" stroke-linejoin="round"/>
<path d="M181.24 658L169.76 677.88" stroke="#C471ED" stroke-width="2" stroke-linecap="round" stroke-linejoin="round"/>
<path d="M480 975C491.046 975 500 966.046 500 955C500 943.954 491.046 935 480 935C468.954 935 460 943.954 460 955C460 966.046 468.954 975 480 975Z" stroke="#FF0000" stroke-width="2" stroke-linecap="round" stroke-linejoin="round"/>
<path d="M484.62 947L496.1 966.88" stroke="#FF0000" stroke-width="2" stroke-linecap="round" stroke-linejoin="round"/>
<path d="M475.38 947H498.34" stroke="#FF0000" stroke-width="2" stroke-linecap="round" stroke-linejoin="round"/>
<path d="M470.76 955L482.24 935.12" stroke="#FF0000" stroke-width="2" stroke-linecap="round" stroke-linejoin="round"/>
<path d="M475.38 963L463.9 943.12" stroke="#FF0000" stroke-width="2" stroke-linecap="round" stroke-linejoin="round"/>
<path d="M484.62 963H461.66" stroke="#FF0000" stroke-width="2" stroke-linecap="round" stroke-linejoin="round"/>
<path d="M489.24 955L477.76 974.88" stroke="#FF0000" stroke-width="2" stroke-linecap="round" stroke-linejoin="round"/>
<path d="M888 631C899.046 631 908 622.046 908 611C908 599.954 899.046 591 888 591C876.954 591 868 599.954 868 611C868 622.046 876.954 631 888 631Z" stroke="#00F260" stroke-width="2" stroke-linecap="round" stroke-linejoin="round"/>
<path d="M896.48 602.52L892.24 615.24L879.52 619.48L883.76 606.76L896.48 602.52Z" stroke="#00F260" stroke-width="2" stroke-linecap="round" stroke-linejoin="round"/>
<path d="M745 921C756.046 921 765 912.046 765 901C765 889.954 756.046 881 745 881C733.954 881 725 889.954 725 901C725 912.046 733.954 921 745 921Z" stroke="#0575E6" stroke-width="2" stroke-linecap="round" stroke-linejoin="round"/>
<path d="M753.48 892.52L749.24 905.24L736.52 909.48L740.76 896.76L753.48 892.52Z" stroke="#0575E6" stroke-width="2" stroke-linecap="round" stroke-linejoin="round"/>
<path d="M89 378C100.046 378 109 369.046 109 358C109 346.954 100.046 338 89 338C77.9543 338 69 346.954 69 358C69 369.046 77.9543 378 89 378Z" stroke="#FF5C00" stroke-width="2" stroke-linecap="round" stroke-linejoin="round"/>
<path d="M97.48 349.52L93.24 362.24L80.52 366.48L84.76 353.76L97.48 349.52Z" stroke="#FF5C00" stroke-width="2" stroke-linecap="round" stroke-linejoin="round"/>
<path d="M745 126C756.046 126 765 117.046 765 106C765 94.9543 756.046 86 745 86C733.954 86 725 94.9543 725 106C725 117.046 733.954 126 745 126Z" stroke="#F80B0B" stroke-width="2" stroke-linecap="round" stroke-linejoin="round"/>
<path d="M753.48 97.52L749.24 110.24L736.52 114.48L740.76 101.76L753.48 97.52Z" stroke="#F80B0B" stroke-width="2" stroke-linecap="round" stroke-linejoin="round"/>
<path d="M332 255V299" stroke="#EBFF00" stroke-width="2" stroke-linecap="round" stroke-linejoin="round"/>
<path d="M342 263H327C325.143 263 323.363 263.737 322.05 265.05C320.737 266.363 320 268.143 320 270C320 271.857 320.737 273.637 322.05 274.95C323.363 276.263 325.143 277 327 277H337C338.857 277 340.637 277.737 341.95 279.05C343.263 280.363 344 282.143 344 284C344 285.857 343.263 287.637 341.95 288.95C340.637 290.263 338.857 291 337 291H320" stroke="#EBFF00" stroke-width="2" stroke-linecap="round" stroke-linejoin="round"/>
<path d="M268 899V943" stroke="#EBFF00" stroke-width="2" stroke-linecap="round" stroke-linejoin="round"/>
<path d="M278 907H263C261.143 907 259.363 907.737 258.05 909.05C256.737 910.363 256 912.143 256 914C256 915.857 256.737 917.637 258.05 918.95C259.363 920.263 261.143 921 263 921H273C274.857 921 276.637 921.737 277.95 923.05C279.263 924.363 280 926.143 280 928C280 929.857 279.263 931.637 277.95 932.95C276.637 934.263 274.857 935 273 935H256" stroke="#EBFF00" stroke-width="2" stroke-linecap="round" stroke-linejoin="round"/>
<defs>
<linearGradient id="paint0_linear" x1="793.5" y1="-1.7948e-05" x2="327" y2="1080" gradientUnits="userSpaceOnUse">
<stop stop-color="#0075FF"/>
<stop offset="1" stop-color="#CD04FF"/>
</linearGradient>
<linearGradient id="paint1_linear" x1="552.556" y1="698" x2="552.556" y2="773" gradientUnits="userSpaceOnUse">
<stop stop-color="white"/>
<stop offset="1" stop-color="white"/>
</linearGradient>
<linearGradient id="paint2_linear" x1="649.5" y1="382" x2="434.5" y2="698" gradientUnits="userSpaceOnUse">
<stop stop-color="#12C2E9"/>
<stop offset="0.508287" stop-color="#C471ED"/>
<stop offset="1" stop-color="#F64F59"/>
</linearGradient>
<linearGradient id="paint3_linear" x1="656" y1="425" x2="425" y2="656" gradientUnits="userSpaceOnUse">
<stop stop-color="#00F260"/>
<stop offset="1" stop-color="#0575E6"/>
</linearGradient>
</defs>
</svg>
